:FULLY-SPECIFIED
:FORCE-ALL-JOINTS-BE-3DOF
:DEGREES
917
root 2.74971 16.2335 32.444 2.39796 10.8526 2.17659
lfemur -13.5352 -3.02508 2.20407
ltibia 27.0333 -0 0
lfoot 5.34957 -46.9234 -0.337485
ltoes 23.4259 -0 0
rfemur -16.5688 -1.31562 -8.2638
rtibia 38.0922 -0 0
rfoot 11.6707 -13.1165 0.0355199
rtoes -26.4865 0 0
lowerback -0.67615 0.265248 -2.83499
upperback -0.818762 0.359886 -4.70474
thorax -0.447063 0.185909 -3.24354
lowerneck -7.18328 -5.40658 -1.46692
upperneck 4.26501 -7.46817 6.05356
head 2.95454 -3.5312 1.86168
lclavicle -8.75908e-15 -1.56709e-15 3.16833e-31
lhumerus -51.1767 -35.534 107.893
lradius 59.1743 -0 0
lwrist 13.2021 0 0
lhand 38.2669 21.1151 0.0251394
lfingers 7.12502 -0 0
lthumb 60.9282 33.7626 -0.0019042
rclavicle -8.75908e-15 -1.56709e-15 3.16833e-31
rhumerus -61.421 33.2381 -106.526
rradius 118.315 -0 0
rwrist 5.26654 0 0
rhand -0.163807 -10.3759 0.0152696
rfingers 7.12502 -0 0
rthumb 25.4482 -38.8072 -0.0350236
918
root 2.6693 16.1999 32.4883 2.71119 10.0685 362.356
lfemur -12.1913 -4.74532 2.98986
ltibia 24.1545 0 0
lfoot 6.3176 -49.2971 0
ltoes 25.5092 0 0
rfemur -16.7793 -0.726183 -8.5435
rtibia 37.4309 0 0
rfoot 11.2351 -12.0362 0
rtoes -32.5507 0 0
lowerback -1.06021 0.238764 -2.8244
upperback -0.926272 0.340902 -4.96828
thorax -0.342851 0.175228 -3.52479
lowerneck -7.20318 -5.10291 -1.31193
upperneck 4.24975 -7.07818 6.09653
head 2.93345 -3.3335 1.86854
lclavicle -1.1208e-14 0 0
lhumerus -51.3079 -35.6989 107.644
lradius 59.1404 0 0
lwrist 13.5778 0 0
lhand 39.3467 22.0271 0
lfingers 7.12502 0 0
lthumb 61.8515 33.7047 0
rclavicle -1.1208e-14 0 0
rhumerus -62.2032 34.529 -104.699
rradius 118.296 0 0
rwrist 5.66647 0 0
rhand 1.94218 -10.0741 0
rfingers 7.12502 0 0
rthumb 27.4493 -758.094 0
919
root 2.5906 16.1618 32.5303 3.00073 9.23082 2.61706
lfemur -10.7425 -5.88286 3.43775
ltibia 21.4501 -0 0
lfoot 6.05536 -50.6058 0.242112
ltoes 25.9956 -0 0
rfemur -17.1123 -0.480861 -8.88399
rtibia 37.0857 -0 0
rfoot 10.3267 -11.1776 -0.0329066
rtoes -36.8321 0 0
lowerback -1.42478 0.186673 -2.81341
upperback -1.02154 0.288374 -5.26536
thorax -0.23984 0.147048 -3.8446
lowerneck -7.20069 -4.75777 -1.13914
upperneck 4.22268 -6.63205 6.11595
head 2.90019 -3.10896 1.86733
lclavicle -1.18824e-14 8.20638e-16 -2.00731e-31
lhumerus -51.5035 -35.939 107.411
lradius 59.0253 -0 0
lwrist 14.028 0 0
lhand 40.2823 22.8831 -0.00775894
lfingers 7.12502 -0 0
lthumb 62.635 33.6114 0.00119371
rclavicle -1.18824e-14 8.20638e-16 -2.00731e-31
rhumerus -62.6446 36.098 -102.185
rradius 118.276 -0 0
rwrist 5.17668 0 0
rhand 4.48104 -9.9594 -0.0172243
rfingers 7.12502 -0 0
rthumb 29.8507 -37.3825 0.0618505
920
root 2.51144 16.1183 32.5713 3.27968 8.34633 2.94905
lfemur -9.12124 -6.57976 3.62753
ltibia 18.7197 -0 0
lfoot 4.89976 -51.1397 0.395183
ltoes 25.5175 -0 0
rfemur -17.586 -0.495773 -9.26936
rtibia 37.1169 -0 0
rfoot 8.98744 -10.4546 -0.0500879
rtoes -39.9586 0 0
lowerback -1.78834 0.100181 -2.80668
upperback -1.11083 0.191359 -5.59986
thorax -0.133516 0.0961609 -4.20286
lowerneck -7.17874 -4.36368 -0.946766
upperneck 4.18894 -6.1207 6.12049
head 2.85659 -2.85256 1.86114
lclavicle -1.14284e-14 1.43728e-15 -3.38783e-31
lhumerus -51.752 -36.251 107.17
lradius 58.8529 -0 0
lwrist 14.5424 0 0
lhand 41.181 23.763 -0.0037909
lfingers 7.12502 -0 0
lthumb 63.3715 33.4766 0.00155658
rclavicle -1.14284e-14 1.43728e-15 -3.38783e-31
rhumerus -62.7831 37.8569 -98.9401
rradius 118.355 -0 0
rwrist 3.96862 0 0
rhand 7.6902 -9.92048 -0.0301122
rfingers 7.12502 -0 0
rthumb 32.8806 -36.5286 0.132366
921
root 2.43257 16.0713 32.6104 3.54356 7.43241 3.32542
lfemur -7.39948 -6.915 3.62277
ltibia 16.0448 -0 0
lfoot 3.05524 -51.0195 0.453879
ltoes 24.2024 -0 0
rfemur -18.1722 -0.715057 -9.67426
rtibia 37.4404 -0 0
rfoot 7.34473 -9.83351 -0.0523323
rtoes -42.1627 0 0
lowerback -2.14072 -0.0101185 -2.79917
upperback -1.19231 0.0628542 -5.95413
thorax -0.0274651 0.0295116 -4.5836
lowerneck -7.14467 -3.93715 -0.736945
upperneck 4.14736 -5.56582 6.10849
head 2.80532 -2.57513 1.84852
lclavicle -1.01207e-14 1.80819e-15 -3.97486e-31
lhumerus -52.0455 -36.6222 106.939
lradius 58.6425 -0 0
lwrist 15.123 0 0
lhand 42.0142 24.6382 0.004883
lfingers 7.12502 -0 0
lthumb 64.0427 33.3372 0.00216797
rclavicle -1.01207e-14 1.80819e-15 -3.97486e-31
rhumerus -62.5227 39.7471 -95.0464
rradius 118.376 -0 0
rwrist 2.24768 0 0
rhand 11.2564 -9.94691 -0.0369637
rfingers 7.12502 -0 0
rthumb 36.2453 -35.6154 0.176692
922
root 2.35475 16.0222 32.6469 3.78891 6.50678 3.7201
lfemur -5.65426 -6.96961 3.48606
ltibia 13.5067 -0 0
lfoot 0.722666 -50.3615 0.432206
ltoes 22.1781 -0 0
rfemur -18.8437 -1.08215 -10.0733
rtibia 37.9722 -0 0
rfoot 5.52588 -9.28036 -0.04334
rtoes -43.6765 0 0
lowerback -2.47175 -0.133579 -2.786
upperback -1.26434 -0.0840636 -6.31057
thorax 0.0746221 -0.0460624 -4.97083
lowerneck -7.10592 -3.49465 -0.511892
upperneck 4.09669 -4.98907 6.07828
head 2.74904 -2.28748 1.82804
lclavicle -8.23433e-15 1.89164e-15 -3.76975e-31
lhumerus -52.3766 -37.0396 106.736
lradius 58.4131 -0 0
lwrist 15.7722 0 0
lhand 42.7534 25.4804 0.0129506
lfingers 7.12502 -0 0
lthumb 64.6302 33.2302 0.00310622
rclavicle -8.23433e-15 1.89164e-15 -3.76975e-31
rhumerus -61.7696 41.6953 -90.5794
rradius 118.179 -0 0
rwrist 0.219269 0 0
rhand 14.8662 -10.0281 -0.035962
rfingers 7.12502 -0 0
rthumb 39.65 -34.7286 0.176986
923
root 2.27874 15.9728 32.6801 4.01337 5.58739 4.10745
lfemur -3.96447 -6.82791 3.27607
ltibia 11.1867 -0 0
lfoot -1.8995 -49.2803 0.347104
ltoes 19.5722 -0 0
rfemur -19.5739 -1.53961 -10.4419
rtibia 38.6284 -0 0
rfoot 3.65806 -8.76119 -0.0280634
rtoes -44.7326 0 0
lowerback -2.7713 -0.259505 -2.76249
upperback -1.32552 -0.236253 -6.65165
thorax 0.168931 -0.123832 -5.34852
lowerneck -7.07006 -3.05259 -0.273943
upperneck 4.03564 -4.41215 6.0282
head 2.69039 -2.00047 1.79833
lclavicle -6.04404e-15 1.64592e-15 -2.90398e-31
lhumerus -52.738 -37.4899 106.579
lradius 58.1837 -0 0
lwrist 16.4922 0 0
lhand 43.3695 26.2607 0.016571
lfingers 7.12502 -0 0
lthumb 65.1157 33.1927 0.00371144
rclavicle -6.04404e-15 1.64592e-15 -2.90398e-31
rhumerus -60.4405 43.615 -85.6158
rradius 117.607 -0 0
rwrist -1.91122 0 0
rhand 18.2065 -10.1534 -0.0269932
rfingers 7.12502 -0 0
rthumb 42.7998 -33.9557 0.134393
